<mxfile host="app.diagrams.net" modified="2021-06-04T05:45:12.286Z" agent="5.0 (Windows NT 10.0; Win64; x64) AppleWebKit/537.36 (KHTML, like Gecko) Chrome/91.0.4472.77 Safari/537.36" etag="dCrM6VjoWxmblpu_P0mI" version="14.7.4" type="github">
  <diagram id="C5RBs43oDa-KdzZeNtuy" name="Page-1">
    <mxGraphModel dx="1038" dy="547" grid="1" gridSize="10" guides="1" tooltips="1" connect="1" arrows="1" fold="1" page="1" pageScale="1" pageWidth="827" pageHeight="1169" math="0" shadow="0">
      <root>
        <mxCell id="WIyWlLk6GJQsqaUBKTNV-0" />
        <mxCell id="WIyWlLk6GJQsqaUBKTNV-1" parent="WIyWlLk6GJQsqaUBKTNV-0" />
        <mxCell id="pjg4q1pylHc0FRaPvcYh-4" style="edgeStyle=orthogonalEdgeStyle;rounded=0;orthogonalLoop=1;jettySize=auto;html=1;entryX=0.5;entryY=0;entryDx=0;entryDy=0;" edge="1" parent="WIyWlLk6GJQsqaUBKTNV-1" source="pjg4q1pylHc0FRaPvcYh-0" target="pjg4q1pylHc0FRaPvcYh-3">
          <mxGeometry relative="1" as="geometry" />
        </mxCell>
        <mxCell id="pjg4q1pylHc0FRaPvcYh-0" value="&lt;b&gt;main.html&lt;/b&gt;" style="rounded=1;whiteSpace=wrap;html=1;fillColor=#f8cecc;strokeColor=#b85450;" vertex="1" parent="WIyWlLk6GJQsqaUBKTNV-1">
          <mxGeometry x="354" y="60" width="120" height="60" as="geometry" />
        </mxCell>
        <mxCell id="pjg4q1pylHc0FRaPvcYh-9" style="edgeStyle=orthogonalEdgeStyle;rounded=0;orthogonalLoop=1;jettySize=auto;html=1;entryX=0.5;entryY=1;entryDx=0;entryDy=0;" edge="1" parent="WIyWlLk6GJQsqaUBKTNV-1" source="pjg4q1pylHc0FRaPvcYh-1" target="pjg4q1pylHc0FRaPvcYh-3">
          <mxGeometry relative="1" as="geometry" />
        </mxCell>
        <mxCell id="pjg4q1pylHc0FRaPvcYh-13" style="edgeStyle=orthogonalEdgeStyle;rounded=0;orthogonalLoop=1;jettySize=auto;html=1;" edge="1" parent="WIyWlLk6GJQsqaUBKTNV-1" source="pjg4q1pylHc0FRaPvcYh-1" target="pjg4q1pylHc0FRaPvcYh-2">
          <mxGeometry relative="1" as="geometry" />
        </mxCell>
        <mxCell id="pjg4q1pylHc0FRaPvcYh-1" value="&lt;b&gt;Node&lt;/b&gt;" style="rounded=1;whiteSpace=wrap;html=1;fillColor=#d5e8d4;strokeColor=#82b366;" vertex="1" parent="WIyWlLk6GJQsqaUBKTNV-1">
          <mxGeometry x="354" y="630" width="120" height="60" as="geometry" />
        </mxCell>
        <mxCell id="pjg4q1pylHc0FRaPvcYh-6" style="edgeStyle=orthogonalEdgeStyle;rounded=0;orthogonalLoop=1;jettySize=auto;html=1;" edge="1" parent="WIyWlLk6GJQsqaUBKTNV-1" source="pjg4q1pylHc0FRaPvcYh-2" target="pjg4q1pylHc0FRaPvcYh-1">
          <mxGeometry relative="1" as="geometry" />
        </mxCell>
        <mxCell id="pjg4q1pylHc0FRaPvcYh-2" value="&lt;b&gt;EPUB&lt;/b&gt;" style="rounded=1;whiteSpace=wrap;html=1;fillColor=#dae8fc;strokeColor=#6c8ebf;" vertex="1" parent="WIyWlLk6GJQsqaUBKTNV-1">
          <mxGeometry x="354" y="800" width="120" height="60" as="geometry" />
        </mxCell>
        <mxCell id="pjg4q1pylHc0FRaPvcYh-8" style="edgeStyle=orthogonalEdgeStyle;rounded=0;orthogonalLoop=1;jettySize=auto;html=1;entryX=0.5;entryY=0;entryDx=0;entryDy=0;" edge="1" parent="WIyWlLk6GJQsqaUBKTNV-1" source="pjg4q1pylHc0FRaPvcYh-3" target="pjg4q1pylHc0FRaPvcYh-1">
          <mxGeometry relative="1" as="geometry" />
        </mxCell>
        <mxCell id="pjg4q1pylHc0FRaPvcYh-10" style="edgeStyle=orthogonalEdgeStyle;rounded=0;orthogonalLoop=1;jettySize=auto;html=1;" edge="1" parent="WIyWlLk6GJQsqaUBKTNV-1" source="pjg4q1pylHc0FRaPvcYh-3" target="pjg4q1pylHc0FRaPvcYh-0">
          <mxGeometry relative="1" as="geometry" />
        </mxCell>
        <mxCell id="pjg4q1pylHc0FRaPvcYh-3" value="&lt;b&gt;viewer_loader.js&lt;/b&gt;" style="rounded=1;whiteSpace=wrap;html=1;fillColor=#e1d5e7;strokeColor=#9673a6;" vertex="1" parent="WIyWlLk6GJQsqaUBKTNV-1">
          <mxGeometry x="354" y="190" width="120" height="60" as="geometry" />
        </mxCell>
        <mxCell id="pjg4q1pylHc0FRaPvcYh-5" value="&lt;b&gt;ePubDataLoader()&lt;/b&gt;" style="text;html=1;strokeColor=none;fillColor=none;align=center;verticalAlign=middle;whiteSpace=wrap;rounded=0;" vertex="1" parent="WIyWlLk6GJQsqaUBKTNV-1">
          <mxGeometry x="414" y="150" width="140" height="20" as="geometry" />
        </mxCell>
        <mxCell id="pjg4q1pylHc0FRaPvcYh-15" style="edgeStyle=orthogonalEdgeStyle;rounded=0;orthogonalLoop=1;jettySize=auto;html=1;" edge="1" parent="WIyWlLk6GJQsqaUBKTNV-1" source="pjg4q1pylHc0FRaPvcYh-11">
          <mxGeometry relative="1" as="geometry">
            <mxPoint x="410" y="315" as="targetPoint" />
          </mxGeometry>
        </mxCell>
        <mxCell id="pjg4q1pylHc0FRaPvcYh-11" value="&lt;h1&gt;&lt;font style=&quot;font-size: 12px&quot;&gt;&#39;/GetPreviewData&#39;&lt;/font&gt;&lt;/h1&gt;&lt;p&gt;&lt;font style=&quot;font-size: 12px&quot;&gt;get EpubData.&lt;/font&gt;&lt;/p&gt;" style="text;html=1;strokeColor=none;fillColor=none;spacing=5;spacingTop=-20;whiteSpace=wrap;overflow=hidden;rounded=0;" vertex="1" parent="WIyWlLk6GJQsqaUBKTNV-1">
          <mxGeometry x="190" y="280" width="160" height="70" as="geometry" />
        </mxCell>
        <mxCell id="pjg4q1pylHc0FRaPvcYh-16" style="edgeStyle=orthogonalEdgeStyle;rounded=0;orthogonalLoop=1;jettySize=auto;html=1;" edge="1" parent="WIyWlLk6GJQsqaUBKTNV-1" source="pjg4q1pylHc0FRaPvcYh-14">
          <mxGeometry relative="1" as="geometry">
            <mxPoint x="420" y="475" as="targetPoint" />
          </mxGeometry>
        </mxCell>
        <mxCell id="pjg4q1pylHc0FRaPvcYh-14" value="&lt;h1&gt;&lt;font style=&quot;font-size: 12px&quot;&gt;&#39;item&#39;&lt;/font&gt;&lt;/h1&gt;&lt;p&gt;&lt;font style=&quot;font-size: 12px&quot;&gt;setting CryptoJS.&lt;/font&gt;&lt;/p&gt;" style="text;html=1;strokeColor=none;fillColor=none;spacing=5;spacingTop=-20;whiteSpace=wrap;overflow=hidden;rounded=0;" vertex="1" parent="WIyWlLk6GJQsqaUBKTNV-1">
          <mxGeometry x="540" y="440" width="160" height="70" as="geometry" />
        </mxCell>
        <mxCell id="pjg4q1pylHc0FRaPvcYh-18" style="edgeStyle=orthogonalEdgeStyle;rounded=0;orthogonalLoop=1;jettySize=auto;html=1;entryX=0.5;entryY=0;entryDx=0;entryDy=0;" edge="1" parent="WIyWlLk6GJQsqaUBKTNV-1" source="pjg4q1pylHc0FRaPvcYh-17" target="pjg4q1pylHc0FRaPvcYh-11">
          <mxGeometry relative="1" as="geometry" />
        </mxCell>
        <mxCell id="pjg4q1pylHc0FRaPvcYh-17" value="&lt;h1&gt;&lt;span style=&quot;font-size: 12px&quot;&gt;1. type epub 확인&lt;/span&gt;&lt;/h1&gt;&lt;div&gt;&lt;span style=&quot;font-size: 12px&quot;&gt;&lt;b&gt;2. createStyleSheet&lt;/b&gt;&lt;/span&gt;&lt;/div&gt;&lt;div&gt;&lt;span style=&quot;font-size: 12px&quot;&gt;&lt;b&gt;&lt;br&gt;&lt;/b&gt;&lt;/span&gt;&lt;/div&gt;&lt;div&gt;&lt;b&gt;data : [&#39;domain&#39;, &#39;path&#39;]&lt;/b&gt;&lt;/div&gt;" style="text;html=1;strokeColor=none;fillColor=none;spacing=5;spacingTop=-20;whiteSpace=wrap;overflow=hidden;rounded=0;" vertex="1" parent="WIyWlLk6GJQsqaUBKTNV-1">
          <mxGeometry x="100" y="105" width="160" height="110" as="geometry" />
        </mxCell>
        <mxCell id="pjg4q1pylHc0FRaPvcYh-29" style="edgeStyle=orthogonalEdgeStyle;rounded=0;orthogonalLoop=1;jettySize=auto;html=1;entryX=0.5;entryY=0;entryDx=0;entryDy=0;" edge="1" parent="WIyWlLk6GJQsqaUBKTNV-1" source="pjg4q1pylHc0FRaPvcYh-19" target="pjg4q1pylHc0FRaPvcYh-14">
          <mxGeometry relative="1" as="geometry" />
        </mxCell>
        <mxCell id="pjg4q1pylHc0FRaPvcYh-19" value="loadKeyData" style="rounded=0;whiteSpace=wrap;html=1;" vertex="1" parent="WIyWlLk6GJQsqaUBKTNV-1">
          <mxGeometry x="540" y="360" width="80" height="20" as="geometry" />
        </mxCell>
        <mxCell id="pjg4q1pylHc0FRaPvcYh-27" style="edgeStyle=orthogonalEdgeStyle;rounded=0;orthogonalLoop=1;jettySize=auto;html=1;entryX=1;entryY=0.5;entryDx=0;entryDy=0;" edge="1" parent="WIyWlLk6GJQsqaUBKTNV-1" source="pjg4q1pylHc0FRaPvcYh-21" target="pjg4q1pylHc0FRaPvcYh-14">
          <mxGeometry relative="1" as="geometry" />
        </mxCell>
        <mxCell id="pjg4q1pylHc0FRaPvcYh-21" value="decryptContents" style="rounded=0;whiteSpace=wrap;html=1;" vertex="1" parent="WIyWlLk6GJQsqaUBKTNV-1">
          <mxGeometry x="700" y="530" width="110" height="20" as="geometry" />
        </mxCell>
        <mxCell id="pjg4q1pylHc0FRaPvcYh-28" style="edgeStyle=orthogonalEdgeStyle;rounded=0;orthogonalLoop=1;jettySize=auto;html=1;entryX=0.75;entryY=0;entryDx=0;entryDy=0;" edge="1" parent="WIyWlLk6GJQsqaUBKTNV-1" source="pjg4q1pylHc0FRaPvcYh-22" target="pjg4q1pylHc0FRaPvcYh-14">
          <mxGeometry relative="1" as="geometry" />
        </mxCell>
        <mxCell id="pjg4q1pylHc0FRaPvcYh-22" value="addedContents" style="rounded=0;whiteSpace=wrap;html=1;" vertex="1" parent="WIyWlLk6GJQsqaUBKTNV-1">
          <mxGeometry x="640" y="360" width="110" height="20" as="geometry" />
        </mxCell>
        <mxCell id="pjg4q1pylHc0FRaPvcYh-26" style="edgeStyle=orthogonalEdgeStyle;rounded=0;orthogonalLoop=1;jettySize=auto;html=1;entryX=0.5;entryY=1;entryDx=0;entryDy=0;" edge="1" parent="WIyWlLk6GJQsqaUBKTNV-1" source="pjg4q1pylHc0FRaPvcYh-23" target="pjg4q1pylHc0FRaPvcYh-14">
          <mxGeometry relative="1" as="geometry" />
        </mxCell>
        <mxCell id="pjg4q1pylHc0FRaPvcYh-23" value="checkLoadChapter" style="rounded=0;whiteSpace=wrap;html=1;" vertex="1" parent="WIyWlLk6GJQsqaUBKTNV-1">
          <mxGeometry x="630" y="565" width="110" height="20" as="geometry" />
        </mxCell>
        <mxCell id="pjg4q1pylHc0FRaPvcYh-25" style="edgeStyle=orthogonalEdgeStyle;rounded=0;orthogonalLoop=1;jettySize=auto;html=1;entryX=0.25;entryY=1;entryDx=0;entryDy=0;" edge="1" parent="WIyWlLk6GJQsqaUBKTNV-1" source="pjg4q1pylHc0FRaPvcYh-24" target="pjg4q1pylHc0FRaPvcYh-14">
          <mxGeometry relative="1" as="geometry" />
        </mxCell>
        <mxCell id="pjg4q1pylHc0FRaPvcYh-24" value="loadSpine" style="rounded=0;whiteSpace=wrap;html=1;" vertex="1" parent="WIyWlLk6GJQsqaUBKTNV-1">
          <mxGeometry x="480" y="565" width="110" height="20" as="geometry" />
        </mxCell>
        <mxCell id="pjg4q1pylHc0FRaPvcYh-32" style="edgeStyle=orthogonalEdgeStyle;rounded=0;orthogonalLoop=1;jettySize=auto;html=1;entryX=0;entryY=0.25;entryDx=0;entryDy=0;" edge="1" parent="WIyWlLk6GJQsqaUBKTNV-1" source="pjg4q1pylHc0FRaPvcYh-31" target="pjg4q1pylHc0FRaPvcYh-14">
          <mxGeometry relative="1" as="geometry">
            <mxPoint x="460" y="470" as="targetPoint" />
            <Array as="points">
              <mxPoint x="460" y="458" />
            </Array>
          </mxGeometry>
        </mxCell>
        <mxCell id="pjg4q1pylHc0FRaPvcYh-31" value="replaceAll" style="rounded=0;whiteSpace=wrap;html=1;" vertex="1" parent="WIyWlLk6GJQsqaUBKTNV-1">
          <mxGeometry x="444" y="360" width="80" height="20" as="geometry" />
        </mxCell>
        <mxCell id="pjg4q1pylHc0FRaPvcYh-33" value="setLoadChapter" style="rounded=0;whiteSpace=wrap;html=1;" vertex="1" parent="WIyWlLk6GJQsqaUBKTNV-1">
          <mxGeometry x="610" y="130" width="110" height="20" as="geometry" />
        </mxCell>
        <mxCell id="pjg4q1pylHc0FRaPvcYh-34" value="removeChapter" style="rounded=0;whiteSpace=wrap;html=1;" vertex="1" parent="WIyWlLk6GJQsqaUBKTNV-1">
          <mxGeometry x="610" y="180" width="110" height="20" as="geometry" />
        </mxCell>
        <mxCell id="pjg4q1pylHc0FRaPvcYh-35" value="checkLoadChapter" style="rounded=0;whiteSpace=wrap;html=1;" vertex="1" parent="WIyWlLk6GJQsqaUBKTNV-1">
          <mxGeometry x="610" y="230" width="110" height="20" as="geometry" />
        </mxCell>
        <mxCell id="pjg4q1pylHc0FRaPvcYh-36" value="makeTag" style="rounded=0;whiteSpace=wrap;html=1;" vertex="1" parent="WIyWlLk6GJQsqaUBKTNV-1">
          <mxGeometry x="610" y="270" width="110" height="20" as="geometry" />
        </mxCell>
      </root>
    </mxGraphModel>
  </diagram>
</mxfile>
